<?xml version="1.0" encoding="utf-8"?>
<!-- Generator: Adobe Illustrator 16.0.0, SVG Export Plug-In . SVG Version: 6.00 Build 0)  -->
<!DOCTYPE svg PUBLIC "-//W3C//DTD SVG 1.1//EN" "http://www.w3.org/Graphics/SVG/1.1/DTD/svg11.dtd">
<svg version="1.1" id="Layer_1" xmlns="http://www.w3.org/2000/svg" xmlns:xlink="http://www.w3.org/1999/xlink" x="0px" y="0px"
	 width="262.245px" height="60px" viewBox="0 0 262.245 60" enable-background="new 0 0 262.245 60" xml:space="preserve">
<g>
	<path fill="#FF6B00" d="M39.303,6.027c0-2.215-1.797-4.004-4.01-4.004c-2.209,0-4.005,1.789-4.005,4.004
		c0,2.217,1.796,4.006,4.005,4.006C37.506,10.033,39.303,8.244,39.303,6.027 M51.302,2.023c-1.143-1.15-13.339,10.685-13.339,10.685
		c-1.782,1.783-0.739,4.289,0,5.336c3.647,5.185,15.491,29.899,13.339,32.054c-2.661,2.67-13.318-14.646-13.318-14.646L34.229,14.31
		c0,0-13.29-13.944-14.948-12.287c-1.5,1.495,10.897,17.528,14.837,25.742c0.921,2.116,0.478,4.803-1.385,7.594
		c-4.009,6.037-11.523,16.672-13.452,14.739c-2.671-2.672,13.301-29.352,7.965-29.352C12.857,22.805,2.201,30.265,2.201,39.146
		c0,10.477,14.815,18.967,33.092,18.967c18.278,0,33.095-8.49,33.095-18.967c0-8.905-10.714-16.373-25.143-18.412
		C37.9,20.734,52.932,3.649,51.302,2.023"/>
	<path fill="#003268" d="M235.822,26.661l11.514,18.046V24.51h5.145v29.516h-5.439l-13.623-21.379v21.379h-5.143V28.051
		c0-1.982,1.303-3.838,3.41-3.88C233.588,24.171,234.852,25.18,235.822,26.661 M206.725,26.787c0.592-1.607,2.236-2.616,3.924-2.616
		c1.771,0,3.289,1.054,3.879,2.616l10.334,27.238h-6.031l-2.533-6.875h-11.551l-2.572,6.875h-5.652L206.725,26.787z M206.559,42.133
		h7.928l-3.963-11.051L206.559,42.133z M175.943,54.025l-6.365-19.48l-1.057,19.48h-5.102l1.348-26.061
		c0.041-2.023,1.646-3.752,3.713-3.794c1.98-0.042,3.586,1.306,4.174,3.039l6.242,18.886l6.031-18.886
		c0.588-1.903,1.936-2.997,3.963-2.997c2.236,0,3.836,1.479,4.004,3.797l1.354,26.016h-5.572l-0.842-19.861l-6.324,19.861H175.943z
		 M158.74,54.023h-5.695V24.51h5.695V54.023z M132.719,24.51h5.689v23.018c0,0.721,0.594,1.352,1.311,1.352h9.949v5.146h-11.129
		c-3.207,0-5.82-2.617-5.82-5.777V24.51z M130.762,54.025h-6.919l-7.379-10.67h-3.709v10.67h-5.694V30.243
		c0-3.162,2.614-5.733,5.819-5.733h3.837c2.528,0.084,4.851-0.041,7.211,1.092c3.039,1.479,4.514,4.896,4.514,8.182
		c-0.041,3.121-1.141,6.074-3.879,7.801c-0.635,0.381-1.268,0.719-2.027,0.93L130.762,54.025z M112.755,38.297h4.384
		c2.699,0,5.48-1.055,5.48-4.303c0-3.37-1.727-4.471-5.735-4.471h-2.821c-0.721,0-1.308,0.678-1.308,1.397V38.297z M89.752,24.045
		c8.137,0,14,5.987,14,15.223c0,9.234-5.863,15.225-14,15.225c-8.139,0-13.96-5.99-13.96-15.225
		C75.792,30.032,81.613,24.045,89.752,24.045 M89.752,49.303c4.932,0,8.137-3.84,8.137-10.035c0-5.568-3.205-10.074-8.137-10.074
		c-4.934,0-8.1,3.871-8.1,10.074C81.652,45.463,84.818,49.303,89.752,49.303 M260.045,51.631c0,1.568-1.287,2.861-2.867,2.861
		c-1.586,0-2.873-1.293-2.873-2.861c0-1.588,1.287-2.875,2.873-2.875C258.758,48.756,260.045,50.043,260.045,51.631 M254.799,51.631
		c0,1.311,1.072,2.379,2.379,2.379c1.316,0,2.385-1.068,2.385-2.379c0-1.316-1.068-2.381-2.385-2.381
		C255.871,49.25,254.799,50.314,254.799,51.631 M258.602,53.191h-0.762l-0.812-1.178h-0.467v1.178h-0.611v-2.609
		c0-0.346,0.279-0.633,0.629-0.633h0.482c0.279,0.006,0.516-0.008,0.779,0.127c0.33,0.16,0.498,0.525,0.498,0.881
		c0,0.359-0.127,0.674-0.43,0.867l-0.205,0.098L258.602,53.191z M256.561,51.465h0.547c0.131,0,0.252-0.021,0.365-0.07
		c0.184-0.086,0.246-0.254,0.23-0.443c0-0.143-0.047-0.305-0.162-0.369c-0.123-0.09-0.322-0.084-0.463-0.084h-0.373l-0.145,0.148
		V51.465z"/>
</g>
</svg>
